<?xml version="1.0" encoding="UTF-8" standalone="no"?>
<svg
   xmlns:dc="http://purl.org/dc/elements/1.1/"
   xmlns:cc="http://creativecommons.org/ns#"
   xmlns:rdf="http://www.w3.org/1999/02/22-rdf-syntax-ns#"
   xmlns:svg="http://www.w3.org/2000/svg"
   xmlns="http://www.w3.org/2000/svg"
   xmlns:sodipodi="http://sodipodi.sourceforge.net/DTD/sodipodi-0.dtd"
   xmlns:inkscape="http://www.inkscape.org/namespaces/inkscape"
   inkscape:version="1.0 (4035a4fb49, 2020-05-01)"
   sodipodi:docname="fantomH.16x16.svg"
   viewBox="0 0 16.000004 16.00466"
   height="16.00466"
   width="16.000004"
   id="svg2"
   version="1.1">
  <metadata
     id="metadata8">
    <rdf:RDF>
      <cc:Work
         rdf:about="">
        <dc:format>image/svg+xml</dc:format>
        <dc:type
           rdf:resource="http://purl.org/dc/dcmitype/StillImage" />
        <dc:title></dc:title>
      </cc:Work>
    </rdf:RDF>
  </metadata>
  <defs
     id="defs6" />
  <sodipodi:namedview
     inkscape:current-layer="g10"
     inkscape:window-maximized="0"
     inkscape:window-y="40"
     inkscape:window-x="0"
     inkscape:cy="118.54923"
     inkscape:cx="160.21478"
     inkscape:zoom="2.08448"
     showgrid="false"
     id="namedview4"
     inkscape:window-height="855"
     inkscape:window-width="1430"
     inkscape:pageshadow="2"
     inkscape:pageopacity="0"
     guidetolerance="10"
     gridtolerance="10"
     objecttolerance="10"
     borderopacity="1"
     bordercolor="#666666"
     pagecolor="#ffffff" />
  <g
     transform="translate(-8.8109551,-8.0113456)"
     id="g10"
     inkscape:label="Image"
     inkscape:groupmode="layer">
    <g
       transform="matrix(0.02640553,0,0,0.02640553,8.52633,7.7401942)"
       id="g879">
      <path
         style="fill:#000000;stroke-width:1.33333"
         d="M 281.07923,615.70958 C 143.87379,598.74203 39.793988,501.08579 14.129793,365.23565 c -4.4677301,-23.64938 -4.4677301,-80.35063 0,-104.00001 C 38.495478,132.25902 132.76928,37.985212 261.74589,13.619531 c 23.64938,-4.4677295 80.35063,-4.4677295 104,0 128.97661,24.365681 223.25042,118.639489 247.6161,247.616109 4.46773,23.64938 4.46773,80.35063 0,104.00001 -24.3087,128.67496 -118.84457,223.40919 -246.94943,247.46755 -14.86936,2.7925 -71.05585,4.772 -85.33333,3.00638 z m 144.524,-47.91631 c 1.56648,-4.08219 0.87844,-8.55762 -1.31562,-8.55762 -2.16672,0 -2.24516,-20.84154 -0.10974,-29.16577 1.08724,-4.23827 8.96227,-19.5736 13.362,-26.02029 1.94666,-2.85234 3.53938,-5.7455 3.53938,-6.42924 0,-0.68375 1.63413,-4.03162 3.6314,-7.4397 1.99728,-3.40809 3.75372,-7.02989 3.90321,-8.04847 0.14949,-1.01857 1.49508,-3.15405 2.9902,-4.74553 1.49511,-1.59148 3.60415,-5.40412 4.68676,-8.47255 1.0826,-3.06842 3.24117,-7.30052 4.79683,-9.40465 1.55565,-2.10413 3.00102,-4.67652 3.21194,-5.71641 0.21091,-1.0399 2.03947,-5.49072 4.06344,-9.89072 2.02398,-4.4 3.86868,-9.95728 4.09934,-12.34951 0.23066,-2.39224 1.59329,-6.29224 3.02806,-8.66667 4.44234,-7.35166 10.39354,-27.55139 16.19923,-54.98383 0.77601,-3.66666 2.31257,-9.96666 3.4146,-14 1.10202,-4.03333 2.88268,-12.43333 3.95701,-18.66666 1.07432,-6.23334 2.84679,-15.23334 3.93881,-20 2.22983,-9.73323 2.81522,-76.99633 0.81807,-94.00001 -1.91785,-16.3286 -6.80995,-38.33676 -10.83819,-48.75803 -2.14542,-5.55024 -3.90074,-10.68794 -3.90074,-11.41712 0,-0.72918 -1.55612,-4.55146 -3.45805,-8.49397 -1.90194,-3.94252 -3.78108,-9.30481 -4.1759,-11.91621 -1.35,-8.92933 -14.49984,-34.25731 -21.4599,-41.334014 -1.03824,-1.05565 -2.42602,-3.45565 -3.08396,-5.33334 -0.65795,-1.87769 -3.04018,-4.46654 -5.29386,-5.753 -2.25368,-1.28647 -4.77605,-4.13647 -5.60528,-6.33334 -0.82922,-2.196874 -2.15437,-3.994314 -2.94477,-3.994314 -2.09801,0 -11.52975,-10.00409 -10.44984,-11.08399 0.5038,-0.5038 -0.61053,-0.91601 -2.47629,-0.91601 -3.0583,0 -8.33231,-3.88228 -5.54874,-4.08451 0.63979,-0.0465 -0.19304,-0.62948 -1.85073,-1.29554 -1.65768,-0.66607 -3.24469,-1.07804 -3.52668,-0.91549 -0.28199,0.16255 -1.62569,-0.65278 -2.98601,-1.81183 -1.36034,-1.15906 -5.47332,-3.18796 -9.13999,-4.50866 -3.66667,-1.32071 -7.23666,-2.92239 -7.93333,-3.55929 -0.69667,-0.63691 -2.58248,-1.15801 -4.19068,-1.15801 -1.60821,0 -3.22987,-0.79702 -3.60368,-1.77116 -0.3738,-0.97414 -5.99956,-3.67414 -12.50167,-6 -18.14002,-6.48886 -49.64785,-6.43565 -61.88356,0.10449 -7.66898,4.09917 -28.51835,20.23463 -28.58455,22.12175 -0.0169,0.48304 -1.64774,2.59515 -3.62399,4.69358 -1.97627,2.09843 -3.9556,4.95714 -4.39853,6.35269 -0.44292,1.39556 -1.2925,2.23628 -1.88792,1.86829 -0.59543,-0.36799 -1.82503,1.12329 -2.73243,3.31397 -0.90741,2.190684 -2.21245,3.983064 -2.90011,3.983064 -0.68764,0 -0.92145,0.53201 -0.51958,1.18225 0.40188,0.65024 -0.15027,1.91338 -1.22698,2.80697 -2.15458,1.78815 -2.54468,2.49951 -14.8253,27.034774 -4.68656,9.3632 -8.52115,17.7632 -8.52132,18.66667 -1.6e-4,0.90346 -1.77636,4.94266 -3.9471,8.976 -2.17073,4.03333 -3.9706,8.30241 -3.99969,9.48685 -0.0291,1.18444 -1.32601,3.77201 -2.88201,5.75016 -2.57626,3.27516 -9.51915,21.73459 -13.82717,36.76299 -0.94599,3.3 -2.98531,10.3424 -4.53184,15.64978 -1.54654,5.30739 -2.81188,11.17666 -2.81188,13.04283 0,1.86617 -0.95294,5.62376 -2.11763,8.35022 -1.16468,2.72644 -2.97611,8.25717 -4.02537,12.2905 -2.37316,9.12231 -9.02288,26.24638 -14.05223,36.18664 -2.09263,4.13599 -3.80477,8.36334 -3.80477,9.39412 0,1.03079 -3.9,9.59652 -8.66667,19.03496 -4.76667,9.43845 -8.66667,18.06258 -8.66667,19.16474 0,1.10216 -1.8,5.19336 -4,9.09153 -2.2,3.89819 -4,7.90735 -4,8.90923 0,1.00189 -1.49093,4.62567 -3.31317,8.05284 -1.82225,3.42717 -3.57441,7.67188 -3.89372,9.43269 -0.67955,3.7475 -5.79951,15.64932 -7.17828,16.6866 -0.52149,0.39234 -2.05044,4.01332 -3.39767,8.04666 -2.02276,6.05574 -9.79424,22.34896 -20.51666,43.01401 -1.05039,2.02438 -2.35261,3.407 -2.89383,3.07251 -0.54122,-0.33449 -2.06726,1.3092 -3.3912,3.65265 -2.43622,4.31228 -12.3515,14.26083 -14.21314,14.26083 -0.55652,0 -2.02588,1.05 -3.26526,2.33333 -1.23938,1.28334 -7.432242,4.43615 -13.761912,7.00626 -20.39453,8.28104 -13.4573,15.44154 9.746522,10.06022 9.86676,-2.28826 19.9859,-2.74098 18.81205,-0.84164 -0.41635,0.67366 1.07685,1.62762 3.31822,2.11991 2.24137,0.49228 4.79094,2.04111 5.6657,3.44183 0.87476,1.40072 2.04615,2.54676 2.60308,2.54676 0.55694,0 2.12122,1.05 3.4762,2.33333 1.35497,1.28333 4.04368,3.45889 5.9749,4.83459 1.93123,1.37569 3.20595,2.99537 2.83269,3.59929 -0.37324,0.60394 1.44468,1.49639 4.03983,1.98324 2.59513,0.48686 5.04723,1.41716 5.44907,2.06736 1.1815,1.91171 29.81134,1.32451 38.57325,-0.79114 13.78323,-3.3281 30.44195,-2.71626 33.40308,1.22682 1.3438,1.78943 2.92896,2.95332 3.52258,2.58644 0.59363,-0.36689 1.67678,0.71904 2.40698,2.41318 1.45948,3.38606 3.23733,6.35684 7.42884,12.41356 1.52249,2.2 3.16976,5.08802 3.66058,6.41784 0.49084,1.32981 1.53706,2.01945 2.32494,1.53252 0.79008,-0.48831 1.75013,0.32934 2.1408,1.82325 1.2378,4.73337 9.72757,6.25503 34.44553,6.17381 17.93899,-0.0589 24.22243,-0.78549 33.22463,-3.84182 9.93966,-3.3746 17.10717,-1.68008 25.2741,5.97524 2.29236,2.14874 4.65335,3.9096 5.24663,3.91298 0.59328,0.004 0.74398,0.54772 0.3349,1.20963 -0.40906,0.66189 1.06343,1.83344 3.27223,2.60344 2.2088,0.76999 4.37228,2.32844 4.80775,3.46321 0.43545,1.13478 1.56456,2.06323 2.50913,2.06323 0.94457,0 3.09912,1.4356 4.78789,3.19023 1.68876,1.75462 3.85174,2.89044 4.80662,2.52401 0.95486,-0.36641 1.73612,-0.10333 1.73612,0.58463 0,2.55266 15.94244,8.34382 25.38578,9.22149 8.34008,0.77513 9.64563,1.26539 10.69088,4.01463 0.70851,1.86352 2.28389,3.13168 3.89033,3.13168 1.81078,0 2.69967,0.87802 2.69967,2.66666 0,3.56376 15.17396,4.07582 16.52401,0.55762 z M 408.65919,256.58811 c -24.75167,-7.70387 -29.07363,-52.76878 -6.57455,-68.55276 17.85951,-12.52918 39.48581,5.28941 39.48581,32.53362 0,22.81059 -16.6838,41.06989 -32.91126,36.01914 z m -83.34545,-14.82835 c -6.69394,-1.99096 -15.45807,-11.53485 -18.34555,-19.9778 -11.96938,-34.99825 18.34135,-67.71952 41.38482,-44.67604 23.35276,23.35275 5.59981,73.17188 -23.03927,64.65384 z"
         id="path14" />
      <path
         style="fill:#ffffff;stroke-width:0.959472"
         d="m 411.66241,568.9159 c -0.95346,-0.2471 -2.13011,-1.49231 -2.6148,-2.76712 -0.53551,-1.40851 -1.65145,-2.31783 -2.8445,-2.31783 -1.15692,0 -2.40694,-0.97377 -3.04352,-2.37092 -1.19239,-2.61701 -4.3531,-3.86075 -12.1663,-4.78743 -6.89065,-0.81728 -19.46192,-4.86398 -22.47641,-7.23518 -1.34074,-1.05462 -2.84452,-1.91749 -3.34175,-1.91749 -0.49722,0 -2.69213,-1.29529 -4.87758,-2.87842 -2.18545,-1.58313 -4.3025,-2.87842 -4.70457,-2.87842 -0.40206,0 -1.95357,-1.29528 -3.44778,-2.87841 -1.49423,-1.58313 -3.30333,-2.87842 -4.02024,-2.87842 -0.71691,0 -1.88044,-0.82374 -2.58563,-1.83054 -2.1226,-3.03043 -10.56383,-9.75505 -14.65794,-11.6771 -5.18043,-2.43205 -9.31052,-2.29823 -20.37679,0.66021 -8.67464,2.31906 -10.92672,2.51125 -30.47522,2.6007 -24.34358,0.1114 -30.05763,-0.78218 -33.33331,-5.21277 -1.12656,-1.52376 -2.5068,-2.78248 -3.0672,-2.79715 -0.56039,-0.0147 -3.60947,-4.38218 -6.77573,-9.70557 -3.16626,-5.32338 -6.40447,-10.29241 -7.19604,-11.04228 -8.78804,-8.32511 -16.91076,-9.45967 -39.14499,-5.46771 -4.37919,0.78624 -14.09384,1.49401 -21.58812,1.57281 -16.83048,0.17699 -21.46954,-1.2134 -29.45725,-8.82873 -2.9024,-2.7671 -6.41212,-5.62893 -7.79937,-6.35962 -1.38725,-0.7307 -2.75169,-1.92636 -3.03207,-2.65704 -0.28039,-0.73068 -2.38359,-2.2603 -4.67377,-3.39916 -2.29018,-1.13885 -4.87766,-2.57923 -5.74995,-3.20083 -1.23516,-0.88021 -3.78194,-0.74298 -11.51366,0.62037 -11.813813,2.08317 -24.751452,2.86755 -26.618382,1.61382 -3.125256,-2.09876 1.729914,-6.11777 13.332551,-11.03644 8.945091,-3.79205 18.295621,-10.33513 23.659921,-16.55614 2.55448,-2.96243 6.04709,-6.81758 7.76137,-8.56699 3.20931,-3.27509 18.12977,-32.11302 23.13821,-44.72103 1.5474,-3.89537 4.12562,-9.66465 5.72937,-12.82063 1.60376,-3.15598 4.19065,-9.19212 5.74865,-13.41366 3.89384,-10.55068 7.23929,-18.69341 11.62879,-28.30415 2.04867,-4.48553 4.90282,-10.96197 6.34256,-14.39208 1.43973,-3.43011 4.77393,-10.55419 7.40931,-15.83128 2.63538,-5.2771 5.78282,-12.22578 6.99432,-15.44151 1.21148,-3.21572 4.11763,-10.12392 6.4581,-15.35155 7.10101,-15.86068 17.24813,-45.87314 18.41799,-54.47549 1.47469,-10.84387 12.98681,-46.76077 19.10681,-59.61171 5.72234,-12.01593 11.54243,-24.93607 14.04683,-31.18284 3.65243,-9.1103 17.9122,-36.951938 20.50252,-40.030347 1.36207,-1.618738 2.4765,-3.636417 2.4765,-4.483731 0,-0.847313 0.37938,-1.54057 0.84307,-1.54057 0.46368,0 1.38382,-1.305519 2.04477,-2.901152 0.66093,-1.595635 1.73974,-3.214744 2.39736,-3.59802 0.65761,-0.383277 3.7943,-4.150966 6.9704,-8.372643 7.62812,-10.139287 25.83414,-24.637121 35.59719,-28.346788 7.61866,-2.894861 23.08351,-4.192057 35.48144,-2.97619 15.09656,1.480523 26.19106,4.768094 35.64029,10.561081 0.79156,0.48528 5.54095,2.473686 10.55419,4.418681 5.01324,1.944993 10.62615,4.51266 12.47313,5.705926 1.84699,1.193267 4.5455,2.463928 5.9967,2.823693 1.4512,0.359765 2.63855,1.220576 2.63855,1.912914 0,1.258252 2.61963,2.904814 6.23657,3.919992 1.05542,0.296227 2.99722,2.125086 4.31514,4.064132 1.3179,1.939045 4.08957,4.752218 6.15927,6.251496 2.06969,1.499277 4.60396,4.108679 5.6317,5.79867 1.02774,1.689991 3.86899,5.030081 6.31387,7.422423 2.44488,2.392341 5.19655,5.644999 6.11485,7.228128 0.91828,1.583128 3.65017,5.684875 6.07086,9.114975 5.8266,8.25628 14.2699,25.65346 16.59957,34.2029 1.0278,3.77188 2.8088,8.95303 3.95777,11.51367 6.16586,13.74147 13.34093,38.2942 16.78187,57.42666 2.26335,12.58479 3.38146,48.72277 2.40459,77.71723 -0.81155,24.08708 -0.98788,25.67328 -5.11951,46.05465 -8.9721,44.25939 -17.38095,76.3941 -22.8066,87.15621 -1.55306,3.08061 -3.28183,7.73703 -3.8417,10.34761 -1.21657,5.67272 -8.14852,22.94832 -11.15585,27.80233 -1.1767,1.89927 -3.26139,6.00101 -4.63264,9.11498 -1.37125,3.11397 -3.45784,6.95706 -4.63687,8.54019 -1.17902,1.58313 -4.47343,7.6278 -7.32091,13.4326 -2.84748,5.80481 -6.9995,13.58674 -9.22672,17.29318 -2.22722,3.70645 -5.9083,10.61284 -8.18016,15.34754 l -4.13067,8.60856 -0.34025,13.43661 c -0.32003,12.63798 -0.21756,13.57723 1.72408,15.8023 2.31005,2.64725 2.01163,6.37658 -0.67442,8.42838 -1.51123,1.15438 -8.45949,1.45848 -12.05186,0.52746 z m 11.32828,-313.41399 c 12.2304,-5.70746 19.51466,-20.74177 18.49034,-38.16306 -1.12257,-19.09244 -11.55449,-32.35481 -26.18229,-33.28625 -5.25894,-0.33486 -6.70951,-0.0265 -11.09786,2.35968 -6.03389,3.28085 -11.44884,9.80543 -14.41991,17.37483 -3.10686,7.91538 -3.13437,25.12334 -0.0527,32.96493 6.93898,17.65684 19.92203,24.97533 33.26241,18.74987 z m -81.31541,-14.89054 c 17.7906,-9.07609 23.49232,-41.97675 10.35826,-59.77033 -16.05809,-21.75498 -42.98931,-11.34425 -47.60466,18.40242 -2.96713,19.12355 6.83096,38.28736 22.12868,43.28087 3.57993,1.16857 10.89075,0.24348 15.11772,-1.91296 z"
         id="path841" />
    </g>
  </g>
</svg>
